{"title":"Cloud.Atlas.2012.RC.BDRip.XviD.AC3-Atilla82","uid":7959159,"size":2702770469,"categoryP":"video","categoryS":"movies","magnet":"?xt=urn:btih:97d437ed4ad1df2a5b266d3f26a289ac8d59fa95&amp;dn=Cloud.Atlas.2012.RC.BDRip.XviD.AC3-Atilla82&amp;tr=udp%3A%2F%2Ftracker.openbittorrent.com%3A80&amp;tr=udp%3A%2F%2Fopen.demonii.com%3A1337&amp;tr=udp%3A%2F%2Ftracker.coppersurfer.tk%3A6969&amp;tr=udp%3A%2F%2Fexodus.desync.com%3A6969","seeders":0,"leechers":1,"uploader":"Atilla82","files":4,"time":1356531717,"description":"Cloud.Atlas.2012.RC.BDRip.DivX.AC3-Atilla82\n\n\n\nDrama | Mystery | Sci-Fi \n\n &lt;a href=&quot;\nhttp://www.imdb.com/title/tt1371111/&quot; rel=&quot;nofollow&quot; target=&quot;_NEW&quot;&gt;\nhttp://www.imdb.com/title/tt1371111/&lt;/a&gt;\n\n\nAn exploration of how the actions of individual lives impact one another in the past, present and future, as one soul is shaped from a killer into a hero, and an act of kindness ripples across centuries to inspire a revolution.\n\n\n\nSUBTITLES: English, Croatian (.srt)\n\n\n\nGeneral\nComplete name : Cloud.Atlas.2012.RC.BDRip.DivX.AC3-Atilla82.avi\nFormat : AVI\nFormat/Info : Audio Video Interleave\nFormat profile : OpenDML\nFile size : 2.52 GiB\nDuration : 2h 52mn\nOverall bit rate : 2 093 Kbps\nWriting application : VirtualDubMod 1.5.10.2 (build 2540/release)\nWriting library : VirtualDubMod build 2540/release\n\nVideo\nID : 0\nFormat : MPEG-4 Visual\nFormat profile : Advanced Simple@L5\nFormat settings, BVOP : 2\nFormat settings, QPel : No\nFormat settings, GMC : No warppoints\nFormat settings, Matrix : Default (H.263)\nMuxing mode : Packed bitstream\nCodec ID : XVID\nCodec ID/Hint : XviD\nDuration : 2h 52mn\nBit rate : 1 634 Kbps\nWidth : 720 pixels\nHeight : 304 pixels\nDisplay aspect ratio : 2.35:1\nFrame rate : 23.976 fps\nColor space : YUV\nChroma subsampling : 4:2:0\nBit depth : 8 bits\nScan type : Progressive\nCompression mode : Lossy\nBits/(Pixel*Frame) : 0.311\nStream size : 1.96 GiB (78%)\nWriting library : XviD 1.2.1 (UTC 2008-12-04)\n\nAudio\nID : 1\nFormat : AC-3\nFormat/Info : Audio Coding 3\nMode extension : CM (complete main)\nFormat settings, Endianness : Big\nCodec ID : 2000\nDuration : 2h 52mn\nBit rate mode : Constant\nBit rate : 448 Kbps\nChannel(s) : 6 channels\nChannel positions : Front: L C R, Side: L R, LFE\nSampling rate : 48.0 KHz\nBit depth : 16 bits\nCompression mode : Lossy\nStream size : 552 MiB (21%)\nAlignment : Split accross interleaves\nInterleave, duration : 42 ms (1.00 video frame)\nInterleave, preload duration : 500 ms\n\n\n\nSCREENSHOTS &lt;a href=&quot;\nhttp://www.pohrani.com/f/2u/UT/4h8P6UHY/screenshots.jpg&quot; rel=&quot;nofollow&quot; target=&quot;_NEW&quot;&gt;\nhttp://www.pohrani.com/f/2u/UT/4h8P6UHY/screenshots.jpg&lt;/a&gt;\n\n\n\n\n","torrent":{"xt":"urn:btih:97d437ed4ad1df2a5b266d3f26a289ac8d59fa95","amp;dn":"Cloud.Atlas.2012.RC.BDRip.XviD.AC3-Atilla82","amp;tr":["udp%3A%2F%2Ftracker.openbittorrent.com%3A80","udp%3A%2F%2Fopen.demonii.com%3A1337","udp%3A%2F%2Ftracker.coppersurfer.tk%3A6969","udp%3A%2F%2Fexodus.desync.com%3A6969"],"infoHash":"97d437ed4ad1df2a5b266d3f26a289ac8d59fa95","infoHashBuffer":{"type":"Buffer","data":[151,212,55,237,74,209,223,42,91,38,109,63,38,162,137,172,141,89,250,149]},"announce":[],"urlList":[]}}